<svg width="54" height="54" viewBox="0 0 54 54" fill="none" xmlns="http://www.w3.org/2000/svg">
<path d="M26.9997 0.333496C12.2797 0.333496 0.333008 12.2802 0.333008 27.0002C0.333008 41.7202 12.2797 53.6668 26.9997 53.6668C41.7197 53.6668 53.6663 41.7202 53.6663 27.0002C53.6663 12.2802 41.7197 0.333496 26.9997 0.333496ZM26.9997 29.6668C25.533 29.6668 24.333 28.4668 24.333 27.0002V16.3335C24.333 14.8668 25.533 13.6668 26.9997 13.6668C28.4663 13.6668 29.6663 14.8668 29.6663 16.3335V27.0002C29.6663 28.4668 28.4663 29.6668 26.9997 29.6668ZM29.6663 40.3335H24.333V35.0002H29.6663V40.3335Z" fill="url(#paint0_linear_2146_2090)"/>
<defs>
<linearGradient id="paint0_linear_2146_2090" x1="26.9997" y1="0.333496" x2="26.9997" y2="53.6668" gradientUnits="userSpaceOnUse">
<stop stop-color="#CC0000"/>
<stop offset="1" stop-color="#660000"/>
</linearGradient>
</defs>
</svg>
