<svg width="23" height="16" viewBox="0 0 23 16" fill="none" xmlns="http://www.w3.org/2000/svg">
<path d="M11.5 2.5C15.29 2.5 18.67 4.63 20.32 8C18.67 11.37 15.29 13.5 11.5 13.5C7.71 13.5 4.33 11.37 2.68 8C4.33 4.63 7.71 2.5 11.5 2.5ZM11.5 0.5C6.5 0.5 2.23 3.61 0.5 8C2.23 12.39 6.5 15.5 11.5 15.5C16.5 15.5 20.77 12.39 22.5 8C20.77 3.61 16.5 0.5 11.5 0.5ZM11.5 5.5C12.88 5.5 14 6.62 14 8C14 9.38 12.88 10.5 11.5 10.5C10.12 10.5 9 9.38 9 8C9 6.62 10.12 5.5 11.5 5.5ZM11.5 3.5C9.02 3.5 7 5.52 7 8C7 10.48 9.02 12.5 11.5 12.5C13.98 12.5 16 10.48 16 8C16 5.52 13.98 3.5 11.5 3.5Z" fill="#2E3338"/>
</svg>
