<svg width="54" height="54" viewBox="0 0 54 54" fill="none" xmlns="http://www.w3.org/2000/svg">
  <path d="M27.0002 0.333344C12.2802 0.333344 0.333496 12.28 0.333496 27C0.333496 41.72 12.2802 53.6667 27.0002 53.6667C41.7202 53.6667 53.6668 41.72 53.6668 27C53.6668 12.28 41.7202 0.333344 27.0002 0.333344ZM19.7735 38.44L10.2002 28.8667C9.16016 27.8267 9.16016 26.1467 10.2002 25.1067C11.2402 24.0667 12.9202 24.0667 13.9602 25.1067L21.6668 32.7867L40.0135 14.44C41.0535 13.4 42.7335 13.4 43.7735 14.44C44.8135 15.48 44.8135 17.16 43.7735 18.2L23.5335 38.44C22.5202 39.48 20.8135 39.48 19.7735 38.44Z" fill="url(#paint0_linear_2039_2585)"/>
  <defs>
  <linearGradient id="paint0_linear_2039_2585" x1="27.0002" y1="0.333344" x2="27.0002" y2="53.6667" gradientUnits="userSpaceOnUse">
  <stop stop-color="#007E33"/>
  <stop offset="1" stop-color="#00C750"/>
  </linearGradient>
  </defs>
</svg>