<svg class="absolute" width="18" height="18" viewBox="0 0 18 18" fill="none" xmlns="http://www.w3.org/2000/svg">
  <path d="M12.9766 11.4716H12.1866L11.9066 11.2016C13.1066 9.80157 13.7266 7.89157 13.3866 5.86157C12.9166 3.08157 10.5966 0.861573 7.79658 0.521573C3.56658 0.00157288 0.00657776 3.56157 0.526578 7.79157C0.866578 10.5916 3.08658 12.9116 5.86658 13.3816C7.89658 13.7216 9.80658 13.1016 11.2066 11.9016L11.4766 12.1816V12.9716L15.7266 17.2216C16.1366 17.6316 16.8066 17.6316 17.2166 17.2216C17.6266 16.8116 17.6266 16.1416 17.2166 15.7316L12.9766 11.4716ZM6.97658 11.4716C4.48658 11.4716 2.47658 9.46157 2.47658 6.97157C2.47658 4.48157 4.48658 2.47157 6.97658 2.47157C9.46658 2.47157 11.4766 4.48157 11.4766 6.97157C11.4766 9.46157 9.46658 11.4716 6.97658 11.4716Z" fill="#C7CCD1"/>
</svg>    